<svg
  xmlns="http://www.w3.org/2000/svg"
  width="1536"
  height="1536"
  viewBox="0 0 1536 1536"
  fill="none"
>
  <rect width="1536" height="1536" fill="#000000"/>
  <path
    fill="#FFFFFF"
    d="M 366.00,197.00 C 354.00,199.67 352.50,203.17 347.00,208.00 C 341.50,212.83 336.33,216.33 333.00,226.00 C 329.67,235.67 322.67,247.50 327.00,266.00 C 331.33,284.50 353.50,313.17 359.00,337.00 C 364.50,360.83 352.83,386.83 360.00,409.00 C 367.17,431.17 395.00,449.50 402.00,470.00 C 409.00,490.50 398.17,513.67 402.00,532.00 C 405.83,550.33 417.00,558.00 425.00,580.00 C 433.00,602.00 442.17,644.00 450.00,664.00 C 457.83,684.00 464.00,690.17 472.00,700.00 C 480.00,709.83 487.00,715.67 498.00,723.00 C 509.00,730.33 522.33,737.67 538.00,744.00 C 553.67,750.33 593.83,754.17 592.00,761.00 C 590.17,767.83 541.17,778.33 527.00,785.00 C 512.83,791.67 512.33,794.83 507.00,801.00 C 501.67,807.17 495.83,808.83 495.00,822.00 C 494.17,835.17 506.00,859.50 502.00,880.00 C 498.00,900.50 475.67,930.00 471.00,945.00 C 466.33,960.00 469.67,958.33 474.00,970.00 C 478.33,981.67 495.17,999.33 497.00,1015.00 C 498.83,1030.67 486.67,1053.00 485.00,1064.00 C 483.33,1075.00 485.17,1076.00 487.00,1081.00 C 488.83,1086.00 487.00,1086.00 496.00,1094.00 C 505.00,1102.00 532.50,1120.67 541.00,1129.00 C 549.50,1137.33 546.33,1134.50 547.00,1144.00 C 547.67,1153.50 544.33,1177.00 545.00,1186.00 C 545.67,1195.00 543.33,1191.67 551.00,1198.00 C 558.67,1204.33 582.00,1216.83 591.00,1224.00 C 600.00,1231.17 602.33,1234.83 605.00,1241.00 C 607.67,1247.17 609.00,1250.50 607.00,1261.00 C 605.00,1271.50 594.00,1293.83 593.00,1304.00 C 592.00,1314.17 596.17,1318.17 601.00,1322.00 C 605.83,1325.83 606.83,1330.33 622.00,1327.00 C 637.17,1323.67 669.83,1306.50 692.00,1302.00 C 714.17,1297.50 739.17,1301.50 755.00,1300.00 C 770.83,1298.50 776.00,1297.67 787.00,1293.00 C 798.00,1288.33 808.17,1284.83 821.00,1272.00 C 833.83,1259.17 852.33,1235.50 864.00,1216.00 C 875.67,1196.50 876.83,1193.67 891.00,1155.00 C 905.17,1116.33 932.00,1026.67 949.00,984.00 C 966.00,941.33 990.17,894.67 993.00,899.00 C 995.83,903.33 969.83,985.17 966.00,1010.00 C 962.17,1034.83 967.83,1041.00 970.00,1048.00 C 972.17,1055.00 975.67,1053.33 979.00,1052.00 C 982.33,1050.67 984.33,1052.83 990.00,1040.00 C 995.67,1027.17 1007.33,998.33 1013.00,975.00 C 1018.67,951.67 1017.83,916.83 1024.00,900.00 C 1030.17,883.17 1043.00,884.00 1050.00,874.00 C 1057.00,864.00 1062.83,850.00 1066.00,840.00 C 1069.17,830.00 1065.17,821.17 1069.00,814.00 C 1072.83,806.83 1085.50,802.50 1089.00,797.00 C 1092.50,791.50 1091.00,786.33 1090.00,781.00 C 1089.00,775.67 1070.67,780.50 1083.00,765.00 C 1095.33,749.50 1144.00,704.50 1164.00,688.00 C 1184.00,671.50 1191.50,670.50 1203.00,666.00 C 1214.50,661.50 1226.83,663.33 1233.00,661.00 C 1239.17,658.67 1241.83,654.00 1240.00,652.00 C 1238.17,650.00 1230.83,646.83 1222.00,649.00 C 1213.17,651.17 1201.83,655.17 1187.00,665.00 C 1172.17,674.83 1150.83,691.67 1133.00,708.00 C 1115.17,724.33 1089.67,754.33 1080.00,763.00 C 1070.33,771.67 1070.67,771.67 1075.00,760.00 C 1079.33,748.33 1095.00,713.17 1106.00,693.00 C 1117.00,672.83 1130.33,652.83 1141.00,639.00 C 1151.67,625.17 1158.67,617.67 1170.00,610.00 C 1181.33,602.33 1201.83,597.50 1209.00,593.00 C 1216.17,588.50 1214.33,585.00 1213.00,583.00 C 1211.67,581.00 1206.17,579.83 1201.00,581.00 C 1195.83,582.17 1193.50,579.67 1182.00,590.00 C 1170.50,600.33 1145.17,626.33 1132.00,643.00 C 1118.83,659.67 1112.83,671.00 1103.00,690.00 C 1093.17,709.00 1081.50,744.50 1073.00,757.00 C 1064.50,769.50 1056.83,760.83 1052.00,765.00 C 1047.17,769.17 1049.83,796.50 1044.00,782.00 C 1038.17,767.50 1030.50,714.17 1017.00,678.00 C 1003.50,641.83 982.83,599.00 963.00,565.00 C 943.17,531.00 924.17,504.67 898.00,474.00 C 871.83,443.33 841.17,410.83 806.00,381.00 C 770.83,351.17 725.50,319.00 687.00,295.00 C 648.50,271.00 614.17,253.33 575.00,237.00 C 535.83,220.67 478.00,204.50 452.00,197.00 C 426.00,189.50 433.33,192.00 419.00,192.00 C 404.67,192.00 378.00,194.33 366.00,197.00 Z"
  />
</svg>
