<svg xmlns="http://www.w3.org/2000/svg" viewBox="0 0 128 128" role="img" aria-labelledby="title">
  <title>審美者蝴蝶</title>
  <rect width="128" height="128" fill="#000000"/>
  <path fill="#FFFFFF" d="M77.2 70.3c-7.4-2.1-12.5-8.1-15.7-15.3C54.8 40.2 40.6 22.7 20 18.6c-5.1-1-8.9 3.9-7.6 8.9 3 11.6 3.8 23.8 8.8 34.5 5.1 10.9 14.8 17.3 28.7 19.5-11 3.1-18.3 9.6-21.6 19.3-1.7 5.1 3.2 9.6 8 7.3 8.4-4.1 15.2-6 22.1-4.3 6.5 1.6 10.1 7.7 14 14.9 2.7 5.1 10.3 4.6 12.3-.8 5.1-13.6 5.2-27.4 1.3-40.5 3.1 1.1 6.3 1.1 9.3-.2 4.4-1.9 6.5-7.1 4.6-11.5-1.9-4.4-7.1-6.5-11.5-4.6-4.9 2.1-7.9 5.5-11.2 10.1Z"/>
  <path fill="#FFFFFF" d="M88.1 66.7c5.7-7.7 11.7-12.6 19.4-16 2.2-1 4.8.1 5.7 2.4.9 2.3-.2 4.8-2.5 5.7-8.3 3.2-14.3 8.3-18.9 15.8l-3.7-7.9Z"/>
  <path fill="#FFFFFF" d="M87.9 66.2c4.5-10.7 10.1-18.4 17.9-24.4 2-1.5 4.8-1.2 6.3.8 1.5 2 1.2 4.8-.8 6.3-7.7 5.8-12.5 13.2-15.8 23.6l-7.6-6.3Z"/>
</svg>
