<svg xmlns="http://www.w3.org/2000/svg" viewBox="0 0 100 100" width="100%" height="100%">
    <!-- Background -->
    <circle cx="50" cy="50" r="50" fill="#F0FFF0" />
    
    <!-- Spikes -->
    <path d="M 35,45 L 25,40 L 32,55 Z" fill="#32CD32" />
    <path d="M 30,55 L 20,55 L 28,68 Z" fill="#32CD32" />
    <path d="M 28,70 L 18,75 L 30,80 Z" fill="#32CD32" />
    <path d="M 45,35 L 40,25 L 50,38 Z" fill="#32CD32" />
    
    <!-- Body -->
    <path d="M 45,35 Q 25,45 30,85 L 70,85 Q 75,65 60,40 Z" fill="#98FB98" />
    
    <!-- Head -->
    <circle cx="60" cy="40" r="16" fill="#98FB98" />
    <ellipse cx="72" cy="46" rx="12" ry="9" fill="#98FB98" />
    
    <!-- Eye -->
    <circle cx="65" cy="38" r="2.5" fill="#333" />
    
    <!-- Cheek -->
    <circle cx="70" cy="43" r="3.5" fill="#FF69B4" opacity="0.6" />
    
    <!-- Mouth -->
    <path d="M 78,48 Q 80,50 82,48" stroke="#333" stroke-width="1.5" fill="none" stroke-linecap="round" />
    
    <!-- Arm -->
    <path d="M 55,60 Q 65,65 65,70 Q 60,70 55,65 Z" fill="#98FB98" />
    
    <!-- Prop -->
    <circle cx="65" cy="38" r="4" fill="#000" /><rect x="61" y="37" width="10" height="2" fill="#000" />
</svg>